<svg id="Layer_1" data-name="Layer 1" xmlns="http://www.w3.org/2000/svg" viewBox="0 0 44 65.33"><title>face3Artboard 3</title><path d="M5.88,16.42s2.49-5,6.64-5.81,5,2.49,5,2.49H20l1.66.83,5,.83H30l.83-.83.83-.83.83-.83,2.49.83s2.49,3.32,2.49,4.15a18.83,18.83,0,0,0,.83,3.32v5.81L39.09,28l.83,3.32L40.75,33v3.32s-1.66,3.32-1.66,4.15v7.42c0,2.4-1.53,4.23-2.64,6.24a32.71,32.71,0,0,1-6.5,8,7.69,7.69,0,0,1-2.08,1.51,8.44,8.44,0,0,1-3,.55c-2.6.17-5.31.32-7.74-.64-2.89-1.14-5.5-3.83-7.35-6.28-2.46-3.25-4.73-7.69-4.73-11.86l-.83-3.32v-10l.83-5,.83-5V16.42Z" style="fill:#f4c3ae"/><path d="M5.1,44.55a2.83,2.83,0,0,1-.28-.2,6.57,6.57,0,0,1-1.87-2,12.5,12.5,0,0,1-.71-2.67c-.3-1.2-.91-2.31-1.19-3.52a13.57,13.57,0,0,1-.19-3.55c0-.75.16-1.92,1.09-2.1A1.42,1.42,0,0,1,3.14,31,4,4,0,0,1,4.08,33a9.74,9.74,0,0,0,.26,1.82c.16.38.58.56.73,1A10.79,10.79,0,0,1,5,38.51a23.34,23.34,0,0,0,.39,3.91c.07.41.93,2.29,0,2.23A.76.76,0,0,1,5.1,44.55Z" style="fill:#f4c3ae"/><path d="M1.73,30.75V24.11l.83-5.81L4.22,15l.83-3.73L7.54,10,8.37,7.5l2.49-.83L12.52,5,15,3.35H17.5l1.66-.83,1.8-1L21.84,1l3.1.51,1.9.77,1.07.13.87.14s-.49,1.73.34.9.84-.14,1.67.69,2.9.66,2.9.66l1.89,1.71S37,8.21,36.79,7.86s.77.93.77.93l.7,2v1.66s-.83,1.66,0,1.66,0,2.49,0,2.49l.83,1.67a.81.81,0,0,1,.83.83v2.49a1.15,1.15,0,0,0,0,1.66,4.1,4.1,0,0,1,.83,2.49v7.47l-.58-1.17-1.08-3a8.36,8.36,0,0,1-.83-2.49V20.79l-.33-1-.18-.65a7.18,7.18,0,0,0-.52-2.26c-.77-1.6-1.26-1.63-1.19-1.59l-.22-.7-.5-.71L34.13,13l-.78-.25-.9-.31-.83.83-.83.83L29.44,15H26.63l-2.35-.39-.88-.14-.5.12H21.24l-.83-.83H18.75s-1.86-1-1.55-1.14-.75-.75-.64-.84-.72-.55-.72-.55a1.69,1.69,0,0,0-1.06-.4l-.6,0H12.52l-1.1.33L10,12.48l-1.64.75L6.31,15.88a4,4,0,0,0,0,2.28c0,.1-.21,1.73-.21,1.73l-.21,1.52-.06,3-.49,2.21L5,29.22l-.55,1.91-.21,2.11-.83.83-.83-2.49Z" style="fill:#ffcb5b"/><path d="M8.11,25.67c.17-.9,4.69-.79,10.1.24" style="fill:#ffcb5b"/><path d="M35.16,25.79c-.15-.85-4.75-.71-10.28.32" style="fill:#ffcb5b"/><path d="M15.84,43.66a37.83,37.83,0,0,1-2.95,3.11,7.72,7.72,0,0,0-1.28,1.52,1.64,1.64,0,0,0-.19,1.53l.12.2.05.07v0l0,0L11.49,50a.43.43,0,0,0-.21-.08.69.69,0,0,1,.28.09,3.61,3.61,0,0,1,.5.33,6.46,6.46,0,0,1,.87.74,4.72,4.72,0,0,1,1,2c.39,1.41.63,2.79,1,4.18-.48-1.34-.78-2.77-1.28-4.06a6,6,0,0,0-1.19-1.62,7.46,7.46,0,0,0-.83-.56,2.36,2.36,0,0,0-.4-.22h0a.4.4,0,0,1-.23-.08l-.09-.07-.05-.07,0,0,0-.05a2.29,2.29,0,0,1-.17-.23A2.05,2.05,0,0,1,10.34,49a2.92,2.92,0,0,1,.42-1.18,6.35,6.35,0,0,1,1.55-1.66A34.36,34.36,0,0,1,15.84,43.66Z" style="fill:#b08874"/><path d="M30,43.78c.89.87,2,1.34,2.87,2.37a3.18,3.18,0,0,1,.83,1.91,3.66,3.66,0,0,1-.54,2l-.26.41c-.07.12-.13.24-.2.38l-.39.82-.78,1.65c-.51,1.11-1,2.21-1.53,3.33a35.71,35.71,0,0,1,1.07-3.52c.4-1.15.82-2.31,1.33-3.43a3.58,3.58,0,0,0,.31-1.55,2.77,2.77,0,0,0-.57-1.4C31.56,45.81,30.45,45,30,43.78Z" style="fill:#b08874"/><path d="M20.81,33.81c0,1.39-.19,2.77-.28,4.16L20.3,40a5.92,5.92,0,0,1-.18,1.15,1.53,1.53,0,0,1-.52.74,1.75,1.75,0,0,1-.79.32,2.61,2.61,0,0,0-.75.15.52.52,0,0,0-.2.32c0,.22,0,.09.08.27a2.43,2.43,0,0,0,.28.28c.09.1.41.33.12.15s-.15,0-.05-.06l.4-.18a3.22,3.22,0,0,1,.62-.24,1.32,1.32,0,0,1,.48-.07,2.06,2.06,0,0,1,.39,0,4.06,4.06,0,0,1,1.22.4,3.75,3.75,0,0,0,.74.29,1.25,1.25,0,0,0,.2,0,.59.59,0,0,0,.21-.08A4.08,4.08,0,0,1,23.73,43a1.31,1.31,0,0,1,.56,0,1.58,1.58,0,0,1,.43.13,5.66,5.66,0,0,1,.56.29c.27.2.59.28.41.27,0,0-.14.06-.07,0l.26-.15c.16-.1.11-.06.12-.06a1,1,0,0,0,.11-.27c0-.12.05-.25.08-.37a1.42,1.42,0,0,0,0-.66.79.79,0,0,0-.39-.43,8.17,8.17,0,0,1-1-.54,1.82,1.82,0,0,1-.5-.57,3.78,3.78,0,0,1-.23-.57A15.91,15.91,0,0,1,23.58,38a17.9,17.9,0,0,1-.31-4.19h.1A21,21,0,0,0,24,37.88c.17.67.35,1.34.58,2a1.66,1.66,0,0,0,.55.81,10,10,0,0,0,.93.44,1.52,1.52,0,0,1,.77.73,2,2,0,0,1,.18,1,2.68,2.68,0,0,1-.28,1,1.06,1.06,0,0,1-.42.37,1.8,1.8,0,0,1-.48.25c-.8,0-1.29-.75-1.92-.64a3.6,3.6,0,0,0-.89.46,1.77,1.77,0,0,1-.51.21,2,2,0,0,1-.55,0c-.73-.12-1.28-.62-1.94-.71a1.41,1.41,0,0,0-1,.19,1.6,1.6,0,0,1-1,.24c-.21-.09-.29-.24-.43-.35a4.44,4.44,0,0,1-.37-.38,1.11,1.11,0,0,1-.21-1,1.3,1.3,0,0,1,.65-.85,3,3,0,0,1,1-.19.77.77,0,0,0,.72-.53,6.33,6.33,0,0,0,.21-1l.36-2,.71-4.09Z" style="fill:#b08874"/><path d="M28.24,48.52a2.29,2.29,0,0,1,1.67.51,6.84,6.84,0,0,0-1.58,1.91c-1.58,2.08-4.5,2.72-7.08,2.33a6.47,6.47,0,0,1-2.95-1.11c-.41-.3-2.78-2.23-2.72-2.53.13-.67,3.33-.71,3.89-.77A69.44,69.44,0,0,1,28.24,48.52Z" style="fill:#fff1e4;stroke:#b08874;stroke-miterlimit:10;stroke-width:2px"/><path d="M41.69,31.86a1,1,0,0,1,1.07.67,3.06,3.06,0,0,1,.11,1.35,16.85,16.85,0,0,1-1,5.42,14,14,0,0,0-1.19,2.87,4.46,4.46,0,0,1-.37,1.58c-.28.47-1,.69-1.36.24a1.18,1.18,0,0,1-.12-.79L39,41a8,8,0,0,1,.33-2c.24-.67.64-1.26.94-1.91a7.16,7.16,0,0,0,.4-3C40.69,33.42,40.9,32.05,41.69,31.86Z" style="fill:#f4c3ae"/><path d="M4,36.88A10.17,10.17,0,0,1,2.6,35.45l-.16-.19c0-.06-.15-.16,0,0a.31.31,0,0,0,.24,0l.07,0,0,.08a1,1,0,0,0,.06.61c.08.25.24.58.35.89a9,9,0,0,1,.3,1,7.25,7.25,0,0,1,.26,2,19.36,19.36,0,0,1-1-1.75c-.3-.61-.57-1.11-.86-1.81a1.76,1.76,0,0,1,0-1.33,1.21,1.21,0,0,1,.24-.33.84.84,0,0,1,.27-.17.61.61,0,0,1,.49,0,.89.89,0,0,1,.29.34l.11.23A10,10,0,0,1,4,36.88Z" style="fill:#b08874"/><path d="M40.43,36.07a5,5,0,0,1,.86-.8l.32-.25.18.51a3.6,3.6,0,0,1,0,2.27,3,3,0,0,1-1.38,1.77c.17-.75.34-1.37.45-2a13.26,13.26,0,0,0,.23-1.92l.5.26A4.85,4.85,0,0,1,40.43,36.07Z" style="fill:#b08874"/><circle cx="13.48" cy="33.38" r="6.49" style="fill:#ee9cb0;stroke:#fff1e4;stroke-miterlimit:10;stroke-width:0.75px"/><circle cx="30.55" cy="33.57" r="6.49" style="fill:#ee9cb0;stroke:#fff1e4;stroke-miterlimit:10;stroke-width:0.75px"/><path d="M20.14,31.83a3.3,3.3,0,0,1,.48-.5h2.85a5.91,5.91,0,0,1,.47.51,4.48,4.48,0,0,1-.48.49H21.08c-.16,0-.32,0-.47,0A3.34,3.34,0,0,1,20.14,31.83Z" style="fill:#fff1e4"/><path d="M7,32.85c-.13-.19-.28-.14-.46-.14l-.54,0a8.32,8.32,0,0,1-1.12.05,5.12,5.12,0,0,1-2.31-.53,5.12,5.12,0,0,1,2.33-.47A5.53,5.53,0,0,1,6.09,32a2.37,2.37,0,0,1,.6.26C6.86,32.35,7.13,32.62,7,32.85Z" style="fill:#fff1e4"/><path d="M37,33.19c-.13-.21.11-.5.29-.6a2.44,2.44,0,0,1,.59-.24,4.11,4.11,0,0,1,1.14-.15,4.64,4.64,0,0,1,2.23.52,4.89,4.89,0,0,1-2.23.48A9.45,9.45,0,0,1,38,33.12l-.51-.06C37.3,33.05,37.17,33,37,33.19Z" style="fill:#fff1e4"/><line x1="33.61" y1="29.38" x2="31.96" y2="34.27" style="fill:#fff1e4"/><path d="M33.61,29.38A6.87,6.87,0,0,1,32,34.27a6.91,6.91,0,0,1,1.65-4.89Z" style="fill:#fff1e4"/><line x1="30.22" y1="30.96" x2="35.16" y2="32.63" style="fill:#fff1e4"/><path d="M30.22,31a6.37,6.37,0,0,1,2.63.36,6.45,6.45,0,0,1,2.31,1.31,6.54,6.54,0,0,1-2.63-.36A6.24,6.24,0,0,1,30.22,31Z" style="fill:#fff1e4"/><line x1="16.06" y1="29.4" x2="14.41" y2="34.29" style="fill:#fff1e4"/><path d="M16.06,29.4A6.11,6.11,0,0,1,15.7,32a6.36,6.36,0,0,1-1.29,2.28,6.22,6.22,0,0,1,.35-2.6A6.13,6.13,0,0,1,16.06,29.4Z" style="fill:#fff1e4"/><line x1="12.66" y1="30.98" x2="17.61" y2="32.65" style="fill:#fff1e4"/><path d="M12.66,31a6.39,6.39,0,0,1,2.64.36,6.46,6.46,0,0,1,2.31,1.31A6.54,6.54,0,0,1,15,32.29,6.42,6.42,0,0,1,12.66,31Z" style="fill:#fff1e4"/></svg>