<svg id="Layer_1" data-name="Layer 1" xmlns="http://www.w3.org/2000/svg" viewBox="0 0 376.41 110.59"><title>socialArtboard 4</title><path d="M77.82,48.09H47.56a1.42,1.42,0,0,0-1.42,1.42v14.8a1.41,1.41,0,0,0,1.42,1.41h11.8V84.11s-2.65.9-10,.9c-8.65,0-20.73-3.16-20.73-29.72S41.23,25.23,53,25.23c10.23,0,14.63,1.79,17.43,2.66a1.43,1.43,0,0,0,1.7-1.39l3.37-14.29A1.31,1.31,0,0,0,75,11.1c-1.14-.81-8.08-4.7-25.62-4.7C29.18,6.4,8.45,15,8.45,56.33s23.73,47.48,43.73,47.48c16.55,0,26.6-7.07,26.6-7.07a1.24,1.24,0,0,0,.46-1.08V49.51A1.43,1.43,0,0,0,77.82,48.09Z" style="fill:#ee9cb0"/><path d="M233.81,11.36a1.42,1.42,0,0,0-1.41-1.43h-17A1.42,1.42,0,0,0,214,11.36V44.29H187.39V11.36A1.42,1.42,0,0,0,186,9.93h-17a1.43,1.43,0,0,0-1.41,1.43v89.17a1.43,1.43,0,0,0,1.41,1.43h17a1.42,1.42,0,0,0,1.41-1.43V62.39H214l0,38.14a1.42,1.42,0,0,0,1.41,1.43H232.4a1.43,1.43,0,0,0,1.41-1.43Z" style="fill:#ee9cb0"/><path d="M110,23.06a11,11,0,1,0-11,11.1A11,11,0,0,0,110,23.06Z" style="fill:#ee9cb0"/><path d="M108.76,81.72V40.56a1.42,1.42,0,0,0-1.41-1.42h-17a1.62,1.62,0,0,0-1.48,1.58v59c0,1.73,1.08,2.25,2.48,2.25h15.3c1.68,0,2.09-.83,2.09-2.28Z" style="fill:#ee9cb0"/><path d="M298.57,39.27H281.66a1.42,1.42,0,0,0-1.4,1.43V84.42a19.1,19.1,0,0,1-10.4,3.15c-6.1,0-7.71-2.77-7.71-8.74V40.7a1.42,1.42,0,0,0-1.41-1.43H243.58a1.42,1.42,0,0,0-1.41,1.43v41c0,17.73,9.88,22.07,23.48,22.07,11.15,0,20.15-6.16,20.15-6.16a34.16,34.16,0,0,0,.62,3.63,1.49,1.49,0,0,0,1.24.77l10.92,0a1.42,1.42,0,0,0,1.41-1.42V40.7A1.43,1.43,0,0,0,298.57,39.27Z" style="fill:#ee9cb0"/><path d="M344.8,37.27a31.82,31.82,0,0,0-16.14,4.28V11.36a1.42,1.42,0,0,0-1.41-1.43H310.16a1.42,1.42,0,0,0-1.41,1.43v89.17a1.42,1.42,0,0,0,1.41,1.43H322a1.43,1.43,0,0,0,1.24-.76,28.4,28.4,0,0,0,.72-4.11s7,6.62,20.22,6.62c15.53,0,24.43-7.87,24.43-35.36S354.41,37.27,344.8,37.27Zm-6.67,50.24a20.31,20.31,0,0,1-9.85-2.84V56.43A22.62,22.62,0,0,1,337,53.6c6.09-.55,12,1.29,12,15.82C349,84.74,346.33,87.76,338.13,87.51Z" style="fill:#ee9cb0"/><path d="M157.74,39.13H145l0-16.89c0-.64-.33-1-1.07-1H126.45c-.68,0-1,.3-1,.95V39.68s-8.73,2.11-9.32,2.28a1.41,1.41,0,0,0-1,1.36v11a1.41,1.41,0,0,0,1.41,1.42h8.93V82.1c0,19.59,13.75,21.52,23,21.52A38.91,38.91,0,0,0,158.58,102a1.33,1.33,0,0,0,.8-1.28V88.6A1.44,1.44,0,0,0,158,87.18c-.75,0-2.65.3-4.61.3-6.28,0-8.41-2.92-8.41-6.7V55.71h12.78a1.41,1.41,0,0,0,1.41-1.42V40.55A1.41,1.41,0,0,0,157.74,39.13Z" style="fill:#ee9cb0"/></svg>