<svg id="Layer_1" data-name="Layer 1" xmlns="http://www.w3.org/2000/svg" viewBox="0 0 563.43 136.27"><title>socialArtboard 4 copy</title><path d="M126.4,14.65c8.31-8.16,13.46-8.4,13.46-8.4s1.62-.25,5.55,1.13,4.1,3.49,4.1,3.49V70.56c.5,16.7-3.65,23.13-8.64,27.59a10.53,10.53,0,0,1-5.39,2.6c-.69,0-1.21-.09-1.34-1a12.21,12.21,0,0,1,.73-3.37C137.39,90,137.18,79,137.18,79l.25-64.31s.2-1.18-.81-.82c-9.82,8.44-11,20.33-11.36,26.09C125.1,48.57,128.85,53,128.85,53a2.66,2.66,0,0,1,.85,2.07,1.4,1.4,0,0,1-1.52,1.52c-3.69-.34-9.57-4.52-11.67-9.55a20,20,0,0,1-1.71-7.73C114.93,34.28,118.09,22.8,126.4,14.65Zm428,57c0,19.2-11.63,18.89-11.63,18.89-11.06.4-13.89-11.3-14.59-23.18-.52-8.94,0-18.89,0-18.89s-.08-.46-.38,0c-3.7,6.72-6.21,16.91-7.45,24.8a88.5,88.5,0,0,0-1,10.52,1.82,1.82,0,0,1-.76,1.69c-6,2.76-9.88-1.16-11.24-5.53-1.83-4.15-2.89-29.1-2.89-30.41s-1.07-.3-1.07-.3c-8.28,13.89-8.36,34.32-8.36,38.46S488,90.56,488,90.56c-6-.46-5.77-3.38-5.77-3.38l-.27-5c-2.09,3.85-6,8.85-11.93,8.46-9-.58-10.78-9.93-10.91-11.51,0,0-4.5,11.64-16.86,11.51-8.4-.13-11.77-8.81-11.77-8.81s-3.37,9.07-11.64,8.74-15.07-9.86-14.54-22.23,2.44-18.54,2.44-18.54.66-1.25-.46-1.32-8.26.13-8.26.13S394,64.84,376.94,85c0,0,.14,6.29.13,13.28,0,13.23-1.65,31-19.57,32.43-15.5-1.05-14.62-13-14.62-13-.37-3.51,1.85-10,11.09-18.67s12.94-12,12.94-12l-.37-5.55c-5.92,9.8-15,9.24-15,9.24s-7,1.43-12.87-9C337,85.28,333,91.36,326.6,90.65c-9-1-10.82-10-11-11.6,0,0-4.52,11.73-16.93,11.6-8.44-.13-11.82-8.88-11.82-8.88a28.18,28.18,0,0,1-2.13-6c-.1.33-.21.68-.37,1.09-1.92,4.9-6.65,13.43-13.92,13.54-13.35,0-13.91-20.71-13.91-20.71-3.86,9.19-11.42,21-25.49,20.87s-15.76-5.16-15.76-5.88-.25-1.53,1.36-3.87,3-3.3,4.1-3.3,3.14,1.69,3.14,1.69,3.06,3,6.51,3c4.43-.16,5.39-3.71,5.71-7.33s-2.25-7.5-5.79-10.72-6.27-5.64-6.27-5.64C219,67,215.15,72.78,212.34,77.78c-6.84,11.12-13.62,12.84-16.25,12.49-3.61-.49-7.07-4.19-7.23-15s.8-29.25.8-30.21-.88-.49-.88-.49C175.27,58.93,171.24,88.41,171.24,89s-1.2,1.21-2.41,1.21.4-.08-4.42-.25-4.5-9.34-4.5-9.34l.32-43.91c.08-1.46,1.44-2.1,6-.89s4.42,2.74,4.42,2.74L170.52,64c11.82-34.89,20.75-29.41,26.14-26.75s4.66,6.53,4.66,6.53-.56,19.17-.8,25.94.72,9.43,2.25,9.67c3.78.89,17.21-25.06,17.21-25.06-5.95-6.44-2.7-14.31,1.93-17.72a14.9,14.9,0,0,1,7-2.58s6-.32,5.87,4.75c.16,5.56-6,12.33-6,12.33,12,8.54,17.61,13,18.49,19.66a12,12,0,0,1-.32,5.15c8.53-7.41,9.17-15.71,9.17-15.71l.16-27.71-12.63-.16s-1-.09-1.12-2.42c0-4.43,2.33-6.29,2.33-6.29l12.06.16s.41-12.48.49-14.5c.4-2.9,2.25-3.3,7.55-1.93s5.31,2.57,5.31,2.57l-.64,14.59s13.27.64,15,.8S287,26,286.57,29s-2.17,3.71-2.17,3.71l-15,.32-1.05,32.15c0,5,.24,16.76,4.91,16.68,6.51.32,10.37-14.26,10.37-14.26l.08-.12a58.09,58.09,0,0,1,.29-8.06c1.24-11.72,6.46-25.45,18.46-25.45a12.83,12.83,0,0,1,11.16,7l.13-2.65s-.27-3.18,4.78-2.39,6.77,2.78,6.64,4.37c0,0-.93,20.42-.4,32.48.68,7,1.88,11.15,5.44,10.86,3.08-.44,5.26-4.65,6.58-8.22-4.46-37.12,15.85-41.62,15.85-41.62s9-.66,13.09,6.84l.13-2.5s-.4-3.28,4.37-2.36a20.86,20.86,0,0,1,4.09,1.05c2.12.79,2.78,1.31,2.78,3.29s-.4,36.65-.4,36.65,10.58-14.21,13.23-28c0,0-3.7-2.76-3.44-6.71s2.25-8.68,8.07-8.68,6.08,5.13,5.15,8.68c0,0,4.9-.66,9.13-1.71s9.92-1.71,10.31,4.87a7.5,7.5,0,0,1-.79,4.21s-3.31,14.6-2.78,20.52,2.12,14.86,6.75,13.81,6.21-7.63,6.21-7.63a53.6,53.6,0,0,1-.93-16.44C428.89,48,434.09,34.39,446,34.39a12.77,12.77,0,0,1,11.11,7l.14-2.63S457,35.58,462,36.36s6.74,2.77,6.61,4.34c0,0-.93,20.26-.4,32.23.67,7,1.87,11.07,5.42,10.79,3.43-.1,6.31-5.89,8.1-10.61l0-1.74.11-34.21a2.31,2.31,0,0,1,2.05-2.07l4.1.63c5.76.87,5,3.06,5,3.06V58.12C497.25,45,499.3,40,501.24,36.64c1.65-2.84,7.07-1,7.07-1s5.87,1.55,6,7c-.17,8.93,1.09,23.47,1.09,23.47,0,.23.22.3.33.2s.09-.32.09-.32c1.17-9.35,6.49-24.71,8.62-28.7s8.28-1.15,8.28-1.15c7.38,2.53,6.39,6.91,6.39,6.91-2.21,37.54,2.43,40,5.17,40.23s4.18-3.3,4.79-5,1.36-5.38,1.82-6.84a2.2,2.2,0,0,1,1.9-1.53S554.44,70.29,554.44,71.67Zm-249-28.74c-2.59.1-8.66,1.79-9.76,18.69s3.39,21.27,7.17,21.77,10.46-5.56,10.86-23.56S305.42,42.93,305.42,42.93Zm53,.08c-2.62.1-9.24,2.4-10.73,18.76-1.11,17.12,3.44,21.55,7.28,22.06S365.57,78.19,366,60,358.4,43,358.4,43Zm8.87,52.49c-15,12.94-16.26,22.18-16.26,22.18s-1.48,7.58,5.73,7.95c8.66.88,10.12-9.65,10.35-18.86C367.2,102.43,367.27,95.5,367.27,95.5Zm82.09-52c-2.59.1-8.67,1.79-9.77,18.69S443,83.49,446.77,84s10.45-5.56,10.85-23.56S449.36,43.53,449.36,43.53Z" style="fill:#ee9cb0"/><path d="M88.86,6.54H17.29A11.15,11.15,0,0,0,6.13,17.68V89.3a11.14,11.14,0,0,0,11.16,11.13H88.86A11.15,11.15,0,0,0,100,89.3V17.68A11.15,11.15,0,0,0,88.86,6.54ZM71.35,19.86A2.62,2.62,0,0,1,74,17.24h12.7a2.62,2.62,0,0,1,2.62,2.62V32.53a2.62,2.62,0,0,1-2.62,2.62H74a2.62,2.62,0,0,1-2.62-2.62ZM53.18,35.58a18,18,0,1,1-18,18A18,18,0,0,1,53.18,35.58ZM89.51,86.9a2.62,2.62,0,0,1-2.62,2.62H19.48a2.63,2.63,0,0,1-2.63-2.62V46.06h8.79a28.06,28.06,0,0,0-1,7.54,28.56,28.56,0,1,0,56.11-7.54h8.78Z" style="fill:#ee9cb0"/></svg>