<?xml version="1.0" standalone="no"?>
<!DOCTYPE svg PUBLIC "-//W3C//DTD SVG 20010904//EN"
 "http://www.w3.org/TR/2001/REC-SVG-20010904/DTD/svg10.dtd">
<svg version="1.0" xmlns="http://www.w3.org/2000/svg"
 width="549.000000pt" height="549.000000pt" viewBox="0 0 549.000000 549.000000"
 preserveAspectRatio="xMidYMid meet">
<metadata>
Created by potrace 1.11, written by Peter Selinger 2001-2013
</metadata>
<g transform="translate(0.000000,549.000000) scale(0.100000,-0.100000)"
fill="#000000" stroke="none">
<path d="M2571 5235 c-29 -19 -85 -51 -125 -71 -157 -79 -271 -200 -361 -386
-64 -130 -87 -220 -88 -343 -1 -60 0 -126 2 -145 1 -19 -3 -49 -10 -67 -16
-40 0 -99 39 -140 30 -32 115 -54 274 -71 79 -8 93 -13 134 -45 25 -20 59 -39
75 -42 28 -6 99 -68 99 -87 0 -4 7 -8 15 -8 9 0 20 17 27 46 20 73 46 77 202
35 86 -23 177 -27 241 -11 64 17 176 77 237 128 31 26 77 59 102 74 24 14 57
46 73 69 24 36 28 53 29 118 2 96 -14 139 -55 147 -17 4 -38 15 -48 26 -26 29
-19 144 13 220 35 84 33 100 -25 142 -66 49 -142 133 -181 201 -17 30 -48 68
-70 85 -49 39 -152 85 -209 95 -29 5 -55 18 -74 36 -28 29 -30 29 -145 29
l-117 0 -54 -35z"/>
<path d="M2095 3376 c-5 -3 -21 -7 -35 -10 l-25 -5 9 -115 8 -115 -61 -58
c-71 -68 -74 -82 -34 -175 68 -158 144 -246 260 -298 62 -28 63 -30 63 -68 0
-43 16 -99 35 -122 7 -8 16 -55 19 -105 7 -89 17 -134 74 -335 16 -58 39 -171
51 -251 24 -162 45 -245 86 -334 22 -48 28 -77 30 -145 2 -80 17 -155 50 -260
41 -130 48 -158 50 -224 2 -61 9 -86 51 -179 26 -59 51 -107 55 -107 4 0 12
19 18 43 5 23 30 119 54 212 76 293 141 595 226 1060 13 66 29 152 36 190 8
39 23 122 35 185 23 120 42 214 66 316 8 33 14 72 14 86 0 15 9 48 20 74 l20
47 54 -7 c52 -6 55 -5 97 33 l44 39 -3 182 c-2 124 0 185 8 195 27 32 -104
214 -144 199 -18 -7 -46 -54 -46 -77 0 -8 -6 -20 -14 -26 -7 -6 -17 -33 -20
-59 -5 -36 -14 -53 -37 -70 l-29 -24 -24 54 c-12 29 -31 73 -42 97 -33 77
-141 131 -240 119 -28 -4 -52 1 -88 19 -48 24 -49 24 -88 7 -21 -9 -54 -34
-73 -55 l-33 -37 -149 25 c-86 14 -173 35 -208 50 -57 24 -118 37 -140 29z"/>
</g>
</svg>
