<svg id="Layer_1" data-name="Layer 1" xmlns="http://www.w3.org/2000/svg" viewBox="0 0 74.32 222"><title>Artboard 2</title>

<!-- Light-Brown cone -->
<path d="M51.51,120.35l-1,.93c-1.78,3.26-4.65,4.14-8.12,3.73l-13.8.26c1.58,2.37.93,4.75.41,7.26.52-2.51,1.17-4.89-.41-7.26l-5.13.32-3.28-2.33-1.89.12-.64.72-.3.25c.23,2.62-.49,5.5,2.11,7.43,0,.59.07,1.18.11,1.76-.25,9.32,4.49,17.63,5.42,26.73.72,6.95,2,13.85,5.7,20-1.62,8.62,3.4,15.92,4.4,25-1.17,3.25,1.82,6.22,4.18,12.77,9.49-32.3,13.24-62.86,19.87-92.77,0-.75,0-1.5,0-2.26.27-.45.54-.9.8-1.36C57.24,120.44,53.88,123.52,51.51,120.35Z" style="fill:#C69C6D"/>

<!-- brown top scoop -->
<path d="M73,44.2l-.67-.55v0c-.12-1.74-.89-2.82-2.8-2.71a4.07,4.07,0,0,0-.78,0,2.59,2.59,0,0,0-.26-.46L67,39c.17-1.09.33-2.18.5-3.27-.86-3.71,2.1-6.59,2.43-10.37A30.64,30.64,0,0,1,59.2,14.22c-2.08-3.85-5.66-5.33-9.64-6.82-2.16-.8-5.43-.52-6.65-3.46H32.49c-2.57,1.55-5,3.47-7.74,4.57-12.82,5.13-23.76,27-19.61,40C3,51.82,4.19,54.77,6.87,57.44l5.88,1.64c4.47.24,9.18-.33,12.62,3.58l2.41.94,0,.08a1.92,1.92,0,0,1,.71-.11h0l.21.3.83.77.26-.1,2.86,3.61c.69-2.19,1.12-3.57,1.51-4.82,3.2-1.69,5.58.25,7.9.56,10.23,3.53,17.66-1.27,24.62-7.5-2.84-2.77-4.52-.77-6.39.87,1.87-1.64,3.55-3.65,6.39-.88l1-.23c3.91-2.85,6.56-6.21,4.65-11.43Zm-43.75,19,.59-.27Z" style="fill:#6b4e38"/>

<!-- beige middle scoop -->
<path d="M71.66,78.6c1.51-4.23-1.68-5.78-4-7.76V56.15l-1,.23c-7,6.24-14.39,11-24.62,7.51-2.32-.31-4.7-2.25-7.9-.56-.39,1.25-.82,2.63-1.51,4.82l-2.86-3.6-.26.09-.95-.22.95.22-.83-.77-.21-.3a1.92,1.92,0,0,0-.71.11l0-.08-2.41-.94c-3.44-3.91-8.15-3.34-12.63-3.58L6.87,57.44,1.93,83.51a6.51,6.51,0,0,0,4.29,5.35l5.3-.76c6.52,4,13.34,3.31,19.36,5.05,2.16-2.17,3.45-4.53,6.8-4.88l4,2.06c7-.89,12.07.87,13.57,8.44l1.91,3.52L60,99.71c.21-1.36.43-2.72.64-4.08l1-.92a4.62,4.62,0,0,1,2.61-4.35c1.08,1.23,2.17,2.45,3.25,3.67a1.25,1.25,0,0,1,.79.37A35.08,35.08,0,0,1,68,80.57Z" style="fill:#fff1e4;opacity:0;"/>

<!-- PINK Bottom scoop -->
<path d="M69.28,104.26l0-1.07a.66.66,0,0,0,0-.55c.08-1,.17-2,.25-3l-2-.08,2,.08c.23-.31.45-.62.68-.92-.64-1.45-1.29-2.89-1.93-4.34h0a1.25,1.25,0,0,0-.79-.37c-1.08-1.22-2.17-2.44-3.25-3.67-.2.9-.39,1.79-.58,2.69h0c.19-.89.38-1.79.58-2.69a4.62,4.62,0,0,0-2.61,4.35l-1,.92c-.21,1.36-.43,2.72-.64,4.08l-2.89,2.58c-.64-1.17-1.27-2.35-1.91-3.53-1.5-7.56-6.61-9.32-13.57-8.43l-4-2.06c-3.35.35-4.64,2.71-6.8,4.88-6-1.74-12.84-1.06-19.36-5.05l-5.3.76c.28,3.55.57,7.1.82,10.2-2.13,2.64-5.1,3.73-5.72,6.7,2.8,7.43,5.72,14.61,14.12,17.32l0-.25a2.28,2.28,0,0,0,0,.26l1.86,1.26.3-.25c.21-.24.43-.48.64-.73l1.89-.11,3.28,2.33,5.13-.32,13.8-.26c3.47.41,6.34-.47,8.12-3.73h0l1-.93c2.37,3.17,5.73.09,8.4,1.32.71-4.29,4-2,5.76-2.28C73.13,115.47,68.64,109.33,69.28,104.26Zm-1-9.45h0l-.78-.24A4.35,4.35,0,0,0,68.33,94.81Zm-19.7,14.56a3.09,3.09,0,0,1,2.2,1.56h0A3.1,3.1,0,0,0,48.63,109.37Zm-18.89-6.11-2,.07L26,100l1.8,3.3ZM42,106.12h0ZM38,109.39a1.82,1.82,0,0,1-.75.52c0-2.18-1.25-3-2.68-3.53,1.43.56,2.66,1.35,2.68,3.53A1.91,1.91,0,0,0,38,109.39Zm-1.16,1.46,3.51.05-3.51-.05L32,110h0ZM32,110h0l-6.13-2Zm11.12,1.17a3.16,3.16,0,0,0,.79-.12A3.16,3.16,0,0,1,43.12,111.2Zm-8.73-10.74a38.6,38.6,0,0,1-3.86.17c-.27.27-.53.54-.79.82h0l.79-.83A35.7,35.7,0,0,0,34.39,100.46ZM15.58,121.2h0l.78.13A6.67,6.67,0,0,1,15.58,121.2Zm6.4,1.13h0Zm27.57-4.76,2-1.91h0Zm3.35-5.69c.22,0,.46,0,.67,0C53.36,111.92,53.12,111.89,52.9,111.88ZM64.18,95.77l.42,0c-.13,1-.25,1.94-.41,3.13.16-1.19.28-2.16.41-3.13Z" style="fill:#ee9cb0"/></svg>
