
<?xml version="1.0" standalone="yes"?>
<svg xmlns="http://www.w3.org/2000/svg" width="549" height="549">
<path style="fill:#fff1e4; stroke:none;" d="M0 0L0 28L0 109L0 255L0 329L0 549L440 549L549 549L549 535L549 517L549 505L549 496L549 483L549 472L549 448L549 444L549 437L549 430L549 427L549 421L549 420L549 409L549 404L549 398L549 109L549 107L549 106L549 104L549 100L549 97L549 22L549 0L521 0L440 0L425 0L412 0L393 0L380 0L0 0z"/>
<path style="fill:#c5b2a1; stroke:none;" d="M262 22L262.778 22.7222L263.306 22.75L264.111 22.9445L265.028 22.9722L267 23L268 23L271 23L278 23L280 23L281 23L283 23.0833L283.944 23.2222L284.944 23.4167L287 24L286.639 22.8611L285.667 22.2778L283.972 22.0278L283 22L282 22L280 22L262 22z"/>
<path style="fill:#b49f8d; stroke:none;" d="M261 23L262 24L261 23z"/>
<path style="fill:#745943; stroke:none;" d="M262 23L262.778 23.7222L263.306 23.75L264.111 23.9445L265.028 23.9722L267 24L268 24L270 24L286 24L285.222 23.2778L284.694 23.25L283.889 23.0555L282.972 23.0278L281 23L280 23L278 23L262 23z"/>
<path style="fill:#cdbaaa; stroke:none;" d="M259 24L260 25L259 24z"/>
<path style="fill:#6b4e38; stroke:none;" d="M202 123L200.861 123.778L200.667 124.306L200.278 125.111L200.111 126.028L200.028 127L200 128L200 130L200 132L200.028 133L200.111 134L200.639 136L201.694 138L202.306 138.944L202.917 139.944L203.306 140.5L204 142L205.5 142.25L207.056 142.639L208 142.861L210 143.389L212 144L213 144.333L215 145L217 145.583L219 145.917L220 145.972L221 146L223 146L226 146L228 146L230 146.028L231 146.083L233 146.417L234 146.694L236 147.389L238 148.25L239 148.778L240 149.25L242 150.389L243 151.028L245 152.333L246 152.972L247 153.611L249 154.722L251 155.639L252 156.056L254 157.083L255 157.722L256 158.417L257.917 160.083L259.611 161.972L260.333 162.889L261.167 163.694L261.583 164.222L263 165L263.75 163.5L263.833 162.944L264.167 161.944L264.361 161L264.889 159L265.25 158L266.333 156.111L268.028 154.722L270 154.111L272 154L273 154L275 154.083L277 154.472L278 154.833L280 155.528L282 156L284 156.417L285 156.694L287 157.306L288 157.583L290 157.917L292 158L293 158L294 158L297 158L304 158L306 158L308 157.972L309 157.917L311 157.583L312 157.306L314 156.667L316 155.917L317 155.472L319 154.5L321 153.472L322 152.944L324 151.806L325 151.194L327 149.972L329 148.611L330 147.861L332 146.361L333 145.611L335 143.917L336 143L337 142.083L339 140.5L340 139.917L341 139.389L343 138.361L344 137.694L345 136.889L347 135L347.972 134L349.75 132L350.5 131L351.5 129L351.917 127L352 125L352 124L352 122L352 118L352 116L352 114L351.917 112L351.583 110L350.972 108.056L350.806 107.5L350 106L348.5 106L346.944 105.889L346 105.667L345 105.278L344 104.667L343.028 103.889L342.111 102.972L340.722 101L340.194 99L340.25 98L340.611 96L340.917 94L340.972 93L341 91L341.028 89L341.083 88L341.389 86L341.778 84.0555L341.972 82.5L342 81L343.167 80.6389L343.417 80.2778L343.944 79.6667L344.611 77.9722L344.861 77L345.361 75L345.611 74L345.917 72.0555L346 70L344.5 68.9445L343.944 68.6111L342 67.3055L341 66.5833L340 65.7778L339 64.9167L337 63L336 62L335 61L333 59L331 57L329.083 55L327.472 53L326.833 52L325.556 50L324.833 49L323.444 47L322.194 45L321.611 44L320.306 42.0833L318.778 40.3889L317.917 39.6389L316 38.1389L315 37.3889L314 36.6945L312 35.3889L311 34.8333L310 34.2778L309 33.8333L308 33.3889L306 32.6111L304 31.8333L303 31.4445L301 30.8611L300 30.6111L298 30L296 29.3333L294 28.6667L293 28.3055L292 27.8889L290 26.7222L288 25.3055L287 24.7222L285 24.1111L283 24L282 24L279 24L269 24L266 24L265 24L263 24.0278L262 24.1111L260 24.6389L258 25.6945L257 26.3333L255 27.6667L253 28.9722L252 29.6111L250 30.75L249 31.2222L248 31.75L247 32.1667L246 32.6389L245 33.0555L243 34L242 34.5L241 35L239 36.0833L237 37.3333L236 38L234 39.4167L232 41.0833L230.028 42.9167L228.222 44.6111L227.389 45.3889L226.611 46.2222L224.917 48.0278L223.028 50L222.083 51L220.389 53L219.639 54L218.861 55L217.444 57L216.833 58L216.194 59L214.972 61L213.667 63L213.028 64L212.389 65L211.833 66L211.25 67L210.778 68L209.778 70L209.222 71L208.778 72L207.778 74L207.25 75L206.833 76L206.389 77L205.611 79L204.833 81L204.444 82L203.861 84L203.639 85L203.361 86L203.139 87L202.611 89L202.306 90L202 91L201.417 93L201 95L200.611 97L200.389 98L200.083 100L200.028 101L200 103L200 105L200 108L200 111L200 112L200 113L200.083 115L200.222 116L200.639 118L200.861 119L201.139 119.944L201.389 120.944L202 123z"/>
<path style="fill:#a9927f; stroke:none;" d="M258 25L259 26L258 25z"/>
<path style="fill:#d7c5b6; stroke:none;" d="M256 26L257 27L256 26z"/>
<path style="fill:#a8917f; stroke:none;" d="M255 27L256 28L255 27z"/>
<path style="fill:#ab9683; stroke:none;" d="M290 27L291 28L290 27z"/>
<path style="fill:#c2ae9d; stroke:none;" d="M253 28L254 29L253 28z"/>
<path style="fill:#dccbbc; stroke:none;" d="M293.667 28.3333L294 28.6667L294.333 28.6667L294 28.3333L293.667 28.3333z"/>
<path style="fill:#d5c2b3; stroke:none;" d="M251 29L252 30L251 29z"/>
<path style="fill:#a38c79; stroke:none;" d="M252 29L253 30L252 29z"/>
<path style="fill:#bca796; stroke:none;" d="M296.667 29.3333L297 29.6667L297.333 29.6667L297 29.3333L296.667 29.3333z"/>
<path style="fill:#ddcbbc; stroke:none;" d="M298.667 29.3333L299 29.6667L299.333 29.6667L299 29.3333L298.667 29.3333z"/>
<path style="fill:#b09988; stroke:none;" d="M250 30L251 31L250 30z"/>
<path style="fill:#99816d; stroke:none;" d="M299.667 30.3333L300 30.6667L300.333 30.6667L300 30.3333L299.667 30.3333z"/>
<path style="fill:#c1ad9d; stroke:none;" d="M301 30L302 31L301 30z"/>
<path style="fill:#baa493; stroke:none;" d="M248 31L249 32L248 31z"/>
<path style="fill:#a48d7a; stroke:none;" d="M303 31L304 32L303 31z"/>
<path style="fill:#af9988; stroke:none;" d="M245.667 32.3333L246 32.6667L246.333 32.6667L246 32.3333L245.667 32.3333z"/>
<path style="fill:#baa593; stroke:none;" d="M305.667 32.3333L306 32.6667L306.333 32.6667L306 32.3333L305.667 32.3333z"/>
<path style="fill:#b09a88; stroke:none;" d="M308 33L309 34L308 33z"/>
<path style="fill:#d1beae; stroke:none;" d="M241 34L242 35L241 34z"/>
<path style="fill:#9f8774; stroke:none;" d="M242 34L243 35L242 34z"/>
<path style="fill:#af9a87; stroke:none;" d="M310 34L311 35L310 34z"/>
<path style="fill:#d6c4b5; stroke:none;" d="M239 35L240 36L239 35z"/>
<path style="fill:#b19b89; stroke:none;" d="M312 35L313 36L312 35z"/>
<path style="fill:#b6a08f; stroke:none;" d="M238 36L239 37L238 36z"/>
<path style="fill:#937b67; stroke:none;" d="M313 36L314 37L313 36z"/>
<path style="fill:#d1beae; stroke:none;" d="M236 37L237 38L236 37z"/>
<path style="fill:#b19b89; stroke:none;" d="M315 37L316 38L315 37z"/>
<path style="fill:#ae9886; stroke:none;" d="M235 38L236 39L235 38z"/>
<path style="fill:#99816e; stroke:none;" d="M316 38L317 39L316 38z"/>
<path style="fill:#d7c5b6; stroke:none;" d="M233 39L234 40L233 39z"/>
<path style="fill:#967d69; stroke:none;" d="M317 39L318 40L317 39z"/>
<path style="fill:#cdbaaa; stroke:none;" d="M232 40L233 41L232 40z"/>
<path style="fill:#baa594; stroke:none;" d="M231 41L232 42L231 41z"/>
<path style="fill:#ad9785; stroke:none;" d="M230 42L231 43L230 42z"/>
<path style="fill:#a58e7b; stroke:none;" d="M320 42L321 43L320 42z"/>
<path style="fill:#a7907e; stroke:none;" d="M229 43L230 44L229 43z"/>
<path style="fill:#c3af9f; stroke:none;" d="M321 43L322 44L321 43z"/>
<path style="fill:#a48c7a; stroke:none;" d="M228 44L229 45L228 44z"/>
<path style="fill:#a68f7c; stroke:none;" d="M322 45L323 46L322 45z"/>
<path style="fill:#9a816e; stroke:none;" d="M226 46L227 47L226 46z"/>
<path style="fill:#a9927f; stroke:none;" d="M225 47L226 48L225 47z"/>
<path style="fill:#9a826f; stroke:none;" d="M323 47L324 48L323 47z"/>
<path style="fill:#a28b78; stroke:none;" d="M224 48L225 49L224 48z"/>
<path style="fill:#cdbaaa; stroke:none;" d="M324 48L325 49L324 48z"/>
<path style="fill:#b29c8b; stroke:none;" d="M223 49L224 50L223 49z"/>
<path style="fill:#c7b3a3; stroke:none;" d="M222 50L223 51L222 50z"/>
<path style="fill:#cab6a6; stroke:none;" d="M221 51L222 52L221 51z"/>
<path style="fill:#c4b1a0; stroke:none;" d="M326 51L327 52L326 51z"/>
<path style="fill:#d5c3b3; stroke:none;" d="M220 52L221 53L220 52z"/>
<path style="fill:#9b8370; stroke:none;" d="M327 53L328 54L327 53z"/>
<path style="fill:#aa9381; stroke:none;" d="M219 54L220 55L219 54z"/>
<path style="fill:#b39d8b; stroke:none;" d="M328 54L329 55L328 54z"/>
<path style="fill:#bea999; stroke:none;" d="M218 55L219 56L218 55z"/>
<path style="fill:#c3af9f; stroke:none;" d="M329 55L330 56L329 55z"/>
<path style="fill:#d7c5b5; stroke:none;" d="M217 56L218 57L217 56z"/>
<path style="fill:#b49e8c; stroke:none;" d="M216 58L217 59L216 58z"/>
<path style="fill:#d2bfaf; stroke:none;" d="M215 59L216 60L215 59z"/>
<path style="fill:#9e8673; stroke:none;" d="M215 60L216 61L215 60z"/>
<path style="fill:#b5a08e; stroke:none;" d="M214 61L215 62L214 61z"/>
<path style="fill:#d8c5b6; stroke:none;" d="M213 62L214 63L213 62z"/>
<path style="fill:#cdbaaa; stroke:none;" d="M336 62L337 63L336 62z"/>
<path style="fill:#a18976; stroke:none;" d="M213 63L214 64L213 63z"/>
<path style="fill:#d2c0b0; stroke:none;" d="M212 64L213 65L212 64z"/>
<path style="fill:#baa594; stroke:none;" d="M338 64L339 65L338 64z"/>
<path style="fill:#a48d7a; stroke:none;" d="M339 65L340 66L339 65z"/>
<path style="fill:#b7a290; stroke:none;" d="M211 66L212 67L211 66z"/>
<path style="fill:#9a826f; stroke:none;" d="M340 66L341 67L340 66z"/>
<path style="fill:#c4b09f; stroke:none;" d="M342 67L343 68L342 67z"/>
<path style="fill:#b29c8a; stroke:none;" d="M210 68L211 69L210 68z"/>
<path style="fill:#a7907e; stroke:none;" d="M343 68L344 69L343 68z"/>
<path style="fill:#c7b4a3; stroke:none;" d="M345 69L346 70L345 69z"/>
<path style="fill:#ae9785; stroke:none;" d="M209 70L210 71L209 70z"/>
<path style="fill:#9c8470; stroke:none;" d="M346 70L346 73L346.694 72.25L346.694 71.1945L346.694 70.75L346 70z"/>
<path style="fill:#b39d8c; stroke:none;" d="M208.333 71.6667L208.333 72.3333L208.667 72.3333L208.667 71.6667L208.333 71.6667z"/>
<path style="fill:#d9c7b8; stroke:none;" d="M346.333 73.6667L346.333 74.3333L346.667 74.3333L346.667 73.6667L346.333 73.6667z"/>
<path style="fill:#b8a392; stroke:none;" d="M207 74L208 75L207 74z"/>
<path style="fill:#99806d; stroke:none;" d="M345 74L345 77L345.694 76.25L345.694 75.8055L345.694 74.75L345 74z"/>
<path style="fill:#c4b0a0; stroke:none;" d="M206 76L207 77L206 76z"/>
<path style="fill:#b59f8e; stroke:none;" d="M205.333 78.6667L205.333 79.3333L205.667 79.3333L205.667 79L205.333 78.6667z"/>
<path style="fill:#9e8673; stroke:none;" d="M344 78L345 79L344 78z"/>
<path style="fill:#c5b1a0; stroke:none;" d="M204 81L205 82L204 81z"/>
<path style="fill:#836854; stroke:none;" d="M342 81L342 84L342.694 83.25L342.694 82.1945L342.694 81.75L342 81z"/>
<path style="fill:#b7a290; stroke:none;" d="M343 81L344 82L343 81z"/>
<path style="fill:#f0e1d3; stroke:none;" d="M202 84L202 88L202.722 87.2222L202.722 86.7222L202.889 86L202.722 84.7778L202 84z"/>
<path style="fill:#a08875; stroke:none;" d="M203.333 84.6667L203.333 85.3333L203.667 85.3333L203.667 84.6667L203.333 84.6667z"/>
<path style="fill:#ad9684; stroke:none;" d="M341.333 85.6667L341.333 86L341.667 86.3333L341.667 85.6667L341.333 85.6667z"/>
<path style="fill:#d2c0b0; stroke:none;" d="M341 87L341 96L341.722 95.2222L341.75 94.6945L341.944 93.8889L341.972 92.9722L342 91L341.944 89.1111L341.75 88.3055L341.722 87.7778L341 87z"/>
<path style="fill:#8c735f; stroke:none;" d="M202.333 88.6667L202.333 89.3333L202.667 89.3333L202.667 89L202.333 88.6667z"/>
<path style="fill:#a38b79; stroke:none;" d="M201.333 91.6667L201.333 92.3333L201.667 92.3333L201.667 92L201.333 91.6667z"/>
<path style="fill:#ddccbd; stroke:none;" d="M200 93L200 96L200.694 95.25L200.694 94.1945L200.694 93.75L200 93z"/>
<path style="fill:#a7907e; stroke:none;" d="M200.333 96.6667L200.333 97.3333L200.667 97.3333L200.667 96.6667L200.333 96.6667z"/>
<path style="fill:#907763; stroke:none;" d="M340 96L340 99L340.694 98.25L340.694 97.1945L340.694 96.75L340 96z"/>
<path style="fill:#bea998; stroke:none;" d="M340 99L340 102L340.694 101.25L340.694 100.806L340.694 99.75L340 99z"/>
<path style="fill:#f1e2d4; stroke:none;" d="M198 101L198 108L198 110L198.028 112L198.083 113L198.389 115L198.611 115.944L198.778 116.944L198.917 117.5L199 119L199.722 118.222L199.75 117.694L199.889 115.972L199.611 114L199.389 113L199.083 111L199.028 110L199 108L199 106L199 105L198.972 104.028L198.944 103.111L198.75 102.306L198.722 101.778L198 101z"/>
<path style="fill:#d7c5b5; stroke:none;" d="M199.333 101.667L199.333 102.333L199.667 102.333L199.667 102L199.333 101.667z"/>
<path style="fill:#b39e8d; stroke:none;" d="M341 102L342 103L341 102z"/>
<path style="fill:#c1ac9b; stroke:none;" d="M199.333 103.667L199.333 104L199.667 104.333L199.667 104L199.333 103.667z"/>
<path style="fill:#af9987; stroke:none;" d="M342 103L343 104L342 103z"/>
<path style="fill:#b29d8b; stroke:none;" d="M343 104L344 105L343 104z"/>
<path style="fill:#a99280; stroke:none;" d="M199 105L199 112L199.722 111.222L199.75 110.694L199.944 109.889L199.972 108.972L199.944 107.111L199.75 106.306L199.722 105.778L199 105z"/>
<path style="fill:#ad9684; stroke:none;" d="M344 105L344.778 105.722L345.25 105.75L346.056 105.944L348 106L347.222 105.278L346.75 105.25L345.944 105.056L344 105z"/>
<path style="fill:#977e6b; stroke:none;" d="M351.333 108.667L351.333 109L351.667 109.333L351.667 108.667L351.333 108.667z"/>
<path style="fill:#e4d3c4; stroke:none;" d="M352 109L352 112L352.694 111.25L352.694 110.194L352.694 109.75L352 109z"/>
<path style="fill:#c4b0a0; stroke:none;" d="M199.333 112.667L199.333 113.333L199.667 113.333L199.667 113L199.333 112.667z"/>
<path style="fill:#a48d7b; stroke:none;" d="M352 112L352 116L352.722 115.222L352.722 114.722L352.889 114L352.722 112.778L352 112z"/>
<path style="fill:#e1d1c2; stroke:none;" d="M353.333 112.667L353.333 113.333L353.667 113.333L353.667 112.667L353.333 112.667z"/>
<path style="fill:#775c46; stroke:none;" d="M352 116L352 125L352.722 124.222L352.75 123.694L352.944 122.889L352.972 121.972L353 120L352.944 118.111L352.75 117.306L352.722 116.778L352 116z"/>
<path style="fill:#a48c7a; stroke:none;" d="M200 117L200 120L200.694 119.25L200.694 118.194L200.694 117.75L200 117z"/>
<path style="fill:#bba695; stroke:none;" d="M353 117L353 125L353.722 124.222L353.75 123.694L353.944 122.889L353.972 121.972L354 121L353.944 119.111L353.75 118.306L353.722 117.778L353 117z"/>
<path style="fill:#e6d5c7; stroke:none;" d="M200 120L200 124L200.722 123.222L200.722 122.722L200.889 122L200.722 120.778L200 120z"/>
<path style="fill:#99816e; stroke:none;" d="M201.333 121.667L201.333 122.333L201.667 122.333L201.667 122L201.333 121.667z"/>
<path style="fill:#917764; stroke:none;" d="M352.333 125.667L352.333 126.333L352.667 126.333L352.667 125.667L352.333 125.667z"/>
<path style="fill:#7f644f; stroke:none;" d="M199 126L199 134L199.722 133.222L199.75 132.694L199.944 131.889L200 130L199.972 129.028L199.944 128.111L199.75 127.306L199.722 126.778L199 126z"/>
<path style="fill:#b7a291; stroke:none;" d="M352 127L353 128L352 127z"/>
<path style="fill:#d5c2b3; stroke:none;" d="M198 129L198 132L198.694 131.25L198.694 130.194L198.694 129.75L198 129z"/>
<path style="fill:#bba695; stroke:none;" d="M351 129L352 130L351 129z"/>
<path style="fill:#c7b3a3; stroke:none;" d="M350 131L351 132L350 131z"/>
<path style="fill:#ab9582; stroke:none;" d="M349 132L350 133L349 132z"/>
<path style="fill:#a58e7c; stroke:none;" d="M348 133L349 134L348 133z"/>
<path style="fill:#947c68; stroke:none;" d="M347 134L348 135L347 134z"/>
<path style="fill:#957c69; stroke:none;" d="M346 135L347 136L346 135z"/>
<path style="fill:#bfab9a; stroke:none;" d="M200 136L201 137L200 136z"/>
<path style="fill:#9e8673; stroke:none;" d="M345 136L346 137L345 136z"/>
<path style="fill:#967e6a; stroke:none;" d="M201 137L202 138L201 137z"/>
<path style="fill:#ac9684; stroke:none;" d="M344 137L345 138L344 137z"/>
<path style="fill:#ccb9a9; stroke:none;" d="M201 138L202 139L201 138z"/>
<path style="fill:#bca796; stroke:none;" d="M343 138L344 139L343 138z"/>
<path style="fill:#b7a290; stroke:none;" d="M202 139L203 140L202 139z"/>
<path style="fill:#a48d7a; stroke:none;" d="M340.667 139.333L340.667 139.667L341.333 139.667L341.333 139.333L340.667 139.333z"/>
<path style="fill:#a58f7c; stroke:none;" d="M203 140L204 141L203 140z"/>
<path style="fill:#9d8572; stroke:none;" d="M338 140L339 141L338 140z"/>
<path style="fill:#9d8672; stroke:none;" d="M337 141L338 142L337 141z"/>
<path style="fill:#99806d; stroke:none;" d="M205.667 142.333L205.667 142.667L206.333 142.667L206.333 142.333L205.667 142.333z"/>
<path style="fill:#ab9583; stroke:none;" d="M336 142L337 143L336 142z"/>
<path style="fill:#e5d5c6; stroke:none;" d="M206 143L206.722 143.722L207.25 143.75L209 144L208.278 143.278L207.75 143.25L206 143z"/>
<path style="fill:#8b715e; stroke:none;" d="M209.667 143.333L209.667 143.667L210.333 143.667L210.333 143.333L209.667 143.333z"/>
<path style="fill:#c1ac9c; stroke:none;" d="M335 143L336 144L335 143z"/>
<path style="fill:#e8d8c9; stroke:none;" d="M209 144L209.722 144.722L210.25 144.75L212 145L211.278 144.278L210.75 144.25L209 144z"/>
<path style="fill:#9c8471; stroke:none;" d="M212.667 144.333L212.667 144.667L213.333 144.667L213 144.333L212.667 144.333z"/>
<path style="fill:#cbb8a8; stroke:none;" d="M334 144L335 145L334 144M214 145L214.722 145.722L215.25 145.75L217 146L216.278 145.278L215.75 145.25L214 145z"/>
<path style="fill:#d9c7b8; stroke:none;" d="M218 146L218.778 146.722L219.306 146.75L220.056 146.944L220.972 146.972L223 147L222.222 146.278L221.694 146.25L220.944 146.056L220.028 146.028L218 146z"/>
<path style="fill:#c1ad9c; stroke:none;" d="M223 146L223.778 146.722L224.306 146.75L225.056 146.944L225.972 146.972L228 147L227.222 146.278L226.694 146.25L225.944 146.056L225.028 146.028L223 146z"/>
<path style="fill:#a8927f; stroke:none;" d="M228 146L228.722 146.722L229.25 146.75L231 147L230.278 146.278L229.75 146.25L228 146z"/>
<path style="fill:#896f5b; stroke:none;" d="M231 146L231.722 146.722L232.25 146.75L234 147L233.278 146.278L232.75 146.25L231 146z"/>
<path style="fill:#a7907d; stroke:none;" d="M331 146L332 147L331 146z"/>
<path style="fill:#f1e2d4; stroke:none;" d="M223 147L223.778 147.722L224.306 147.75L225.111 147.944L226.028 147.972L228 148L228.944 148L232 148L231.222 147.278L230.694 147.25L229.889 147.056L228.972 147.028L227 147L226.056 147L223 147z"/>
<path style="fill:#d6c5b5; stroke:none;" d="M232 147L232.722 147.722L233.25 147.75L235 148L234.278 147.278L233.75 147.25L232 147z"/>
<path style="fill:#a38c79; stroke:none;" d="M235.667 147.333L235.667 147.667L236.333 147.667L236 147.333L235.667 147.333z"/>
<path style="fill:#bda897; stroke:none;" d="M330 147L331 148L330 147z"/>
<path style="fill:#c1ad9c; stroke:none;" d="M238 148L239 149L238 148z"/>
<path style="fill:#ccb9a9; stroke:none;" d="M240 149L241 150L240 149z"/>
<path style="fill:#a99381; stroke:none;" d="M327 149L328 150L327 149z"/>
<path style="fill:#c5b1a0; stroke:none;" d="M242 150L243 151L242 150z"/>
<path style="fill:#a58e7b; stroke:none;" d="M324 151L325 152L324 151z"/>
<path style="fill:#a48d7a; stroke:none;" d="M245 152L246 153L245 152z"/>
<path style="fill:#967d69; stroke:none;" d="M322 152L323 153L322 152z"/>
<path style="fill:#9f8774; stroke:none;" d="M246 153L247 154L246 153z"/>
<path style="fill:#c7b3a3; stroke:none;" d="M321 153L322 154L321 153z"/>
<path style="fill:#9b8370; stroke:none;" d="M247.667 154.333L247.667 154.667L248.333 154.667L248.333 154.333L247.667 154.333z"/>
<path style="fill:#9a826e; stroke:none;" d="M267 154L267.722 154.722L268.25 154.75L270 155L269.278 154.278L268.75 154.25L267 154z"/>
<path style="fill:#cab6a6; stroke:none;" d="M270 154L270.778 154.722L271.306 154.75L272.056 154.944L272.972 154.972L275 155L274.222 154.278L273.694 154.25L272.944 154.056L272.028 154.028L270 154z"/>
<path style="fill:#a08875; stroke:none;" d="M275 154L275.722 154.722L276.25 154.75L278 155L277.278 154.278L276.75 154.25L275 154z"/>
<path style="fill:#b59f8e; stroke:none;" d="M318.667 154.333L318.667 154.667L319.333 154.667L319.333 154.333L318.667 154.333z"/>
<path style="fill:#ac9583; stroke:none;" d="M250 155L251 156L250 155z"/>
<path style="fill:#99806d; stroke:none;" d="M266 155L267 156L266 155z"/>
<path style="fill:#cbb8a7; stroke:none;" d="M278 155L279 156L278 155z"/>
<path style="fill:#a28b78; stroke:none;" d="M279 155L280 156L279 155z"/>
<path style="fill:#e5d4c6; stroke:none;" d="M317.667 155.333L317.667 155.667L318.333 155.667L318.333 155.333L317.667 155.333z"/>
<path style="fill:#dccabb; stroke:none;" d="M252.667 156.333L252.667 156.667L253.333 156.667L253.333 156.333L252.667 156.333z"/>
<path style="fill:#987f6c; stroke:none;" d="M265 156L265 159L265.694 158.25L265.694 157.194L265.694 156.75L265 156z"/>
<path style="fill:#aa9381; stroke:none;" d="M281.667 156.333L281.667 156.667L282.333 156.667L282.333 156.333L281.667 156.333z"/>
<path style="fill:#836854; stroke:none;" d="M283.667 156.333L283.667 156.667L284.333 156.667L284.333 156.333L283.667 156.333z"/>
<path style="fill:#9e8673; stroke:none;" d="M314 156L315 157L314 156z"/>
<path style="fill:#edddcf; stroke:none;" d="M313 157L313.778 157.694L314.25 157.694L315.528 157.694L317 157L316.222 156.361L315.75 156.472L314.944 156.472L313 157z"/>
<path style="fill:#c5b2a1; stroke:none;" d="M284.667 157.333L284.667 157.667L285.333 157.667L285.333 157.333L284.667 157.333z"/>
<path style="fill:#917864; stroke:none;" d="M286.667 157.333L286.667 157.667L287.333 157.667L287.333 157.333L286.667 157.333z"/>
<path style="fill:#c1ac9b; stroke:none;" d="M311.667 157.333L311.667 157.667L312.333 157.667L312.333 157.333L311.667 157.333z"/>
<path style="fill:#ae9886; stroke:none;" d="M256 158L257 159L256 158z"/>
<path style="fill:#dbcaba; stroke:none;" d="M287.667 158.333L287.667 158.667L288.333 158.667L288.333 158.333L287.667 158.333z"/>
<path style="fill:#9a826f; stroke:none;" d="M289.667 158.333L289.667 158.667L290.333 158.667L290.333 158.333L289.667 158.333z"/>
<path style="fill:#755843; stroke:none;" d="M291 158L291.778 158.722L292.306 158.75L293.111 158.944L294.028 158.972L295 159L296 159L298 159L308 159L307.222 158.278L306.694 158.25L305.889 158.056L304.972 158.028L304 158L303 158L301 158L291 158z"/>
<path style="fill:#c9b5a6; stroke:none;" d="M308.667 158.333L308.667 158.667L309.333 158.667L309.333 158.333L308.667 158.333z"/>
<path style="fill:#bba695; stroke:none;" d="M257 159L258 160L257 159z"/>
<path style="fill:#e6d5c6; stroke:none;" d="M265.333 159.667L265.333 160.333L265.667 160.333L265.667 159.667L265.333 159.667z"/>
<path style="fill:#d4c2b2; stroke:none;" d="M292.667 159.333L292.667 159.667L293.333 159.667L293.333 159.333L292.667 159.333z"/>
<path style="fill:#ae9886; stroke:none;" d="M294 159L294.778 159.722L295.306 159.75L296.111 159.944L297.028 159.972L299 160L299.944 160L303 160L302.222 159.278L301.694 159.25L300.889 159.056L299.972 159.028L298 159L297.056 159L294 159z"/>
<path style="fill:#cfbcac; stroke:none;" d="M303 159L303.722 159.722L304.25 159.75L306 160L305.278 159.278L304.75 159.25L303 159z"/>
<path style="fill:#a99280; stroke:none;" d="M258 160L259 161L258 160z"/>
<path style="fill:#b29c8a; stroke:none;" d="M264.333 160.667L264.333 161.333L264.667 161.333L264.667 160.667L264.333 160.667z"/>
<path style="fill:#f3e4d6; stroke:none;" d="M293 160L293.778 160.722L294.306 160.75L295.111 160.944L296.028 160.972L297 161L299 161L300 161L302 161L306 161L305.222 160.278L304.694 160.25L303.889 160.056L302.972 160.028L302 160L300 160L298 160L293 160z"/>
<path style="fill:#9a826e; stroke:none;" d="M259 161L260 162L259 161z"/>
<path style="fill:#c0ac9b; stroke:none;" d="M261 164L262 165L261 164z"/>
<path style="fill:#a38c79; stroke:none;" d="M263 164L264 165L263 164z"/>
<path style="fill:#dccabb; stroke:none;" d="M262.667 165.333L263 165.667L263.333 165.667L263 165.333L262.667 165.333z"/>
<path style="fill:#f5c0c6; stroke:none;" d="M210 211L210.778 211.722L211.306 211.75L212.111 211.944L213.028 211.972L213.944 212L214.944 212L217 212L216.222 211.278L215.694 211.25L214.889 211.056L213.972 211.028L213.056 211L212.056 211L210 211z"/>
<path style="fill:#ee9cb0; stroke:none;" d="M204 213L204 215.056L204.028 216.056L204.083 217L204.389 219L204.611 220L204.917 222L204.972 223L205.028 225L205.083 226L205.389 228L205.611 229L205.917 231L205.944 232L205.667 234L205.278 235L204.667 236L202.972 237.972L202 238.917L200 240.611L199 241.389L197.028 243.083L196.083 244.028L194.5 246L193.944 247L193.278 249L193.167 250L193.417 252L193.694 253L194.389 255L194.806 256L195.611 258L196.389 260L196.833 261L197.25 262L197.778 263L198.778 265L199.222 266L199.778 267L200.222 268L200.778 269L201.222 270L201.778 271L202.25 272L203.444 274L204.167 275L205.639 277L206.389 278L208.083 279.972L209.028 280.917L211 282.583L213 284L214 284.667L216 285.972L217 286.611L219 287.75L220 288.222L222 289.167L224 290.056L225 290.528L227 291.361L228 291.583L230 291.361L232 290.639L233 290.417L234 290.444L235 290.722L237 291.889L238 292.611L240 293.889L241 294.361L243 294.889L244 294.972L246 295L247 295L249 294.917L250 294.778L252 294.389L254 294.083L255 294.028L257 294L258 294L261 294L272 294L286 294L288 294L289 294L290 294L292 293.917L294 293.528L295 293.139L296 292.722L298 291.528L298.972 290.75L299.917 289.917L301.583 288L302.278 287.056L302.917 286.056L303.306 285.5L304 284L306 284L306.778 285.389L308.111 286.333L310 286.889L311 286.972L313 286.917L315 286.611L316 286.389L318 286.083L319.972 286.111L320.889 286.278L322.222 286.861L323 288L323.75 287.222L323.861 286.694L324.694 284.972L325.333 284L326.111 283.028L327.028 282.111L329 280.806L331 280.5L332 280.639L334 280.917L335 280.972L337 280.889L338 280.667L339 280.306L340.972 279.111L341.917 278.361L343.528 276.778L344.167 275.917L345.361 274L345.917 273L346.694 271L346.972 269L347 267L347 265L346.972 264L346.917 263L346.611 261L346.222 259L346.083 258L345.972 256L345.917 255L345.611 253L345.389 252L345.083 250L345.028 249L345 248L345 246L345 243L345 242L345.028 241L345.306 239L345.611 238L346.389 236L346.806 234L346.722 233L346.528 232L345.75 230L345.222 229L344.75 228L343.528 226L341.917 224L340.972 223L339.028 221L338.111 220.056L337.306 219.056L336.778 218.5L336 217L333.944 217.111L332.944 217.333L331.111 218.333L329.722 220.028L329.111 222L329.028 222.944L329 223.944L329 226L327 226L326 227L325.972 228.5L325.778 230.056L325.611 231L325.389 232L324.972 234L324.278 236L322.889 238L321.972 238.972L321 239.889L320.056 240.667L318.5 241.639L317 242L316.722 240.5L316.139 238.944L315.75 238L315.25 237L314.444 235L314.167 234L313.861 233L313.611 232L312.972 230L312.583 229L311.583 227L310.972 226L309.583 224L308.778 223L306.972 221.083L305 219.472L304 218.861L302 217.778L300 216.861L299 216.472L297 216.083L295 216L294 216L292 216L289 216L288 216L287 216L285 215.917L284 215.75L283 215.528L281 214.75L279 213.778L278 213.25L276 212.472L274 212.083L272 212.083L271 212.25L270 212.5L268 213.472L266.083 214.861L264.389 216.389L263.611 217.222L261.917 219L260 220.583L259 221.056L258 221.278L256 221.194L255 221.083L253 220.917L251 220.611L249 220.222L248 220.083L246 219.972L245 219.917L243 219.611L241 219.222L240 219.083L238 218.972L237 218.917L235 218.583L234 218.306L232 217.611L231 217.194L230 216.833L229 216.472L228 216.222L226 215.778L225 215.528L223 214.75L222 214.222L220 213.25L218 212.472L217 212.25L216 212.083L214 212L213 212L211 212L210 212.028L209 212.083L207.056 212.389L205.5 212.75L204 213z"/>
<path style="fill:#f9d3d2; stroke:none;" d="M282 215L282.778 215.722L283.306 215.75L284.111 215.944L285.028 215.972L286 216L288 216L290 216L295 216L294.222 215.278L293.694 215.25L292.889 215.056L291.972 215.028L291 215L289 215L287 215L282 215z"/>
<path style="fill:#f8cfcf; stroke:none;" d="M333.667 216.333L333.667 216.667L334.333 216.667L334.333 216.333L333.667 216.333z"/>
<path style="fill:#f7cacc; stroke:none;" d="M234 218L234.778 218.722L235.25 218.75L236.056 218.944L238 219L237.222 218.278L236.75 218.25L235.944 218.056L234 218z"/>
<path style="fill:#f7c9cb; stroke:none;" d="M204 219L204 225L204.722 224.222L204.75 223.694L204.944 222.889L204.944 221.111L204.75 220.306L204.722 219.778L204 219z"/>
<path style="fill:#f5bfc6; stroke:none;" d="M328 221L328 226L328.722 225.222L328.75 224.694L328.917 223.917L328.75 222.306L328.722 221.778L328 221z"/>
<path style="fill:#f8cdce; stroke:none;" d="M205 228L205 236L205.722 235.222L205.75 234.694L205.944 233.889L205.972 232.972L206 232L205.944 230.111L205.75 229.306L205.722 228.778L205 228z"/>
<path style="fill:#f5c0c6; stroke:none;" d="M325 228L325 232L325.722 231.222L325.722 230.722L325.889 230L325.722 228.778L325 228z"/>
<path style="fill:#f4bcc3; stroke:none;" d="M345 237L345 245L345.722 244.222L345.75 243.694L345.944 242.889L345.972 241.972L346 241L345.944 239.111L345.75 238.306L345.722 237.778L345 237z"/>
<path style="fill:#f9d3d1; stroke:none;" d="M345 245L345 253L345.722 252.222L345.75 251.694L345.944 250.889L346 249L345.972 248.028L345.944 247.111L345.75 246.306L345.722 245.778L345 245z"/>
<path style="fill:#f8d0d0; stroke:none;" d="M346 256L346 261L346.722 260.222L346.75 259.694L346.917 258.083L346.75 257.306L346.722 256.778L346 256z"/>
<path style="fill:#f5bec5; stroke:none;" d="M328 280L328.778 280.722L329.25 280.75L330.056 280.944L332 281L331.222 280.278L330.75 280.25L329.944 280.056L328 280z"/>
<path style="fill:#f9d1d1; stroke:none;" d="M334 281L334.778 281.722L335.25 281.75L336.056 281.944L338 282L337.222 281.278L336.75 281.25L335.944 281.056L334 281z"/>
<path style="fill:#c69c6d; stroke:none;" d="M304 284L302.75 285.5L302.333 286.056L300.778 288L299.917 288.972L298.972 289.917L297 291.528L296 292.139L295 292.722L294 293.139L293 293.528L291 293.917L290 293.972L289 294L287 294L286 294L284 294L279 294L263 294L257 294L256 294L254 294.028L253 294.083L251 294.389L250 294.611L248 294.917L247 294.972L245 294.972L244 294.889L243 294.694L241 293.889L240 293.278L238 291.889L236 290.694L234 290.139L232.028 290.333L230.333 291.333L229.722 292.111L229.111 294L229.028 295L229 297L229 299L229.028 300L229.083 301L229.417 303L229.722 304L230.111 305L231.278 307L232.694 309L233.278 310L233.667 311L233.972 313L234 315L234 316L234 318L234 319L234.083 321L234.222 322L234.611 324L234.806 325L235.194 327L235.389 328L235.611 329L235.917 331L236.083 333L236.417 335L236.694 336L237.389 338L237.806 339L238.528 341L239 343L239.389 345L239.806 347L240.222 349L240.472 350L241.194 352L241.611 353L241.972 354L242.583 356L242.944 358L243.056 359L243.472 361L243.833 362L244.611 364L245.306 366L245.583 367L245.778 368L245.917 369L246 371L246 372L246.028 374L246.083 375L246.389 377L246.611 378L246.944 380L247.222 382L247.389 383L247.778 385L247.917 386L248.083 388L248.389 390L248.639 391L249.139 393L249.361 394L249.611 395L249.944 397L250.056 398L250.472 400L251.25 402L251.75 403L252.556 405L252.861 406L253.611 408L254.611 410L255.583 412L256.417 414L257.389 416L257.917 417L258.694 419L258.972 421L259 422L259 424L259 426L259 429L259 431L259 433L259.083 435L259.222 436L259.611 438L259.806 439L260.194 441L260.417 442L260.694 443L261.389 445L261.806 446L262.167 447L262.528 448L262.944 450L263.306 452L263.611 453L264.472 455L264.917 456L265.278 457L265.583 458L266 460L266.389 462L266.639 463L266.861 464L267.444 466L268.167 468L268.528 469L268.917 471L269 473L269 474L269 475L269 477L269 478L269 479L269.083 481L269.417 483L269.694 484L270.417 486L271.389 488L271.944 489L273 491L274.056 493L274.611 494L275.583 496L276.306 497.944L276.583 498.944L276.75 499.5L277 501L277.806 500.222L277.972 499.694L278.361 498.889L279.028 497L279.389 496L279.806 495L280.528 493L280.778 492L281 491L281.417 489L281.694 488L282.389 486L283.167 484L283.528 483L283.944 481L284.056 480L284.417 478L284.694 477L285.333 475L286 473L286.583 471L286.806 470L287.194 468L287.611 466L287.944 464L288.056 463L288.417 461L288.694 460L289.306 458L289.611 457L290.139 455L290.361 454L290.611 453L290.944 451L291.056 450L291.417 448L291.694 447L292.333 445L293 443L293.306 442L293.583 441L293.917 439L294.083 437L294.417 435L294.694 434L295.306 432L295.611 431L296.139 429L296.361 428L296.611 427L296.944 425L297.056 424L297.389 422L297.611 421L297.806 420L298.194 418L298.389 417L298.611 416L298.944 414L299.056 413L299.389 411L299.639 410L299.861 409L300.361 407L300.611 406L300.917 404L301.083 402L301.389 400L301.639 399L302.139 397L302.361 396L302.861 394L303.361 392L303.611 391L303.917 389L304.083 387L304.389 385L304.639 384L305.139 382L305.361 381L305.861 379L306.361 377L306.611 376L306.917 374L307.083 372L307.389 370L307.611 369L307.917 367L307.972 366L308.111 364L308.306 363L309 361L309.389 360L309.917 358L310.056 357L310.389 355L310.611 354L310.917 352L310.972 351L311.083 349L311.389 347L311.639 346L311.861 345L312.361 343L312.611 342L312.917 340L313.083 338L313.389 336L313.639 335L314.139 333L314.361 332L314.861 330L315.139 329L315.361 328L315.639 327L315.861 326L316.361 324L316.611 323L316.944 321L317.056 320L317.389 318L317.611 317L317.917 315L318.083 313L318.417 311L318.694 310L319.306 308L319.611 307L320.139 305L320.361 304L320.611 303L320.944 301L321.056 300L321.222 299L321.611 297L321.917 295L321.972 294L322.083 292L322.389 290L322.611 289.056L322.778 288.056L322.917 287.5L323 286L320.944 286L319.944 286L318 286.028L317 286.083L315 286.389L314 286.611L312 286.889L310 286.667L308.056 285.722L307.5 285.389L306 284L304 284z"/>
<path style="fill:#dfc2a3; stroke:none;" d="M322 289L322 295L322.722 294.222L322.75 293.694L322.944 292.889L322.944 291.111L322.75 290.306L322.722 289.778L322 289z"/>
<path style="fill:#ead1b8; stroke:none;" d="M228 292L228 301L228.722 300.222L228.75 299.694L228.944 298.889L229 297L228.972 295.028L228.944 294.111L228.75 293.306L228.722 292.778L228 292z"/>
<path style="fill:#edd7c0; stroke:none;" d="M321 297L321 301L321.722 300.222L321.889 299L321.722 298.278L321.722 297.778L321 297z"/>
<path style="fill:#ecd5bd; stroke:none;" d="M320.333 303.667L320.333 304L320.667 304.333L320.667 303.667L320.333 303.667z"/>
<path style="fill:#f0dac4; stroke:none;" d="M319 307L319 311L319.722 310.222L319.889 309L319.722 308.278L319.722 307.778L319 307z"/>
<path style="fill:#ead2b9; stroke:none;" d="M233 309L233 319L233.722 318.222L233.75 317.694L233.944 316.889L233.972 315.972L234 314L233.972 312.028L233.944 311.111L233.75 310.306L233.722 309.778L233 309z"/>
<path style="fill:#d7b691; stroke:none;" d="M318 310L318 313L318.694 312.25L318.694 311.194L318.694 310.75L318 310z"/>
<path style="fill:#ead2b8; stroke:none;" d="M318 313L318 316L318.694 315.25L318.694 314.194L318.694 313.75L318 313z"/>
<path style="fill:#e9d0b6; stroke:none;" d="M317.333 317.667L317.333 318L317.667 318.333L317.667 317.667L317.333 317.667z"/>
<path style="fill:#dcbe9c; stroke:none;" d="M234 323L234 326L234.694 325.25L234.694 324.194L234.694 323.75L234 323z"/>
<path style="fill:#ead2b9; stroke:none;" d="M316 323L316 326L316.694 325.25L316.694 324.194L316.694 323.75L316 323z"/>
<path style="fill:#e2c7a9; stroke:none;" d="M315 327L315 330L315.694 329.25L315.694 328.194L315.694 327.75L315 327z"/>
<path style="fill:#e9d1b7; stroke:none;" d="M235 328L235 333L235.722 332.222L235.75 331.694L235.917 330.917L235.75 329.306L235.722 328.778L235 328z"/>
<path style="fill:#dec09f; stroke:none;" d="M314.333 331.667L314.333 332.333L314.667 332.333L314.667 331.667L314.333 331.667z"/>
<path style="fill:#d1ac83; stroke:none;" d="M313 335L313 339L313.722 338.222L313.889 337L313.722 336.278L313.722 335.778L313 335z"/>
<path style="fill:#e8ceb4; stroke:none;" d="M237 338L237 341L237.694 340.25L237.694 339.194L237.694 338.75L237 338z"/>
<path style="fill:#d9b995; stroke:none;" d="M238 340L238 343L238.694 342.25L238.694 341.194L238.694 340.75L238 340z"/>
<path style="fill:#dfc2a2; stroke:none;" d="M312.333 342.667L312.333 343.333L312.667 343.333L312.667 343L312.333 342.667z"/>
<path style="fill:#e7cdb2; stroke:none;" d="M311 346L311 350L311.722 349.222L311.722 348.722L311.889 348L311.722 346.778L311 346z"/>
<path style="fill:#f5e3d0; stroke:none;" d="M241 352L241.083 354.056L241.389 355.944L241.75 357.5L242 359L242.722 358.222L242.722 357.694L242.861 356.889L242.583 355.028L242.333 354.111L241.972 353.306L241.806 352.778L241 352z"/>
<path style="fill:#ebd3ba; stroke:none;" d="M309.333 360.667L309.333 361.333L309.667 361.333L309.667 361L309.333 360.667z"/>
<path style="fill:#dcbe9c; stroke:none;" d="M308 361L308 365L308.722 364.222L308.722 363.722L308.889 363L308.722 361.778L308 361z"/>
<path style="fill:#e0c3a4; stroke:none;" d="M244 363L244 366L244.694 365.25L244.694 364.194L244.694 363.75L244 363M245 366L245 370L245.722 369.222L245.722 368.722L245.889 368L245.722 366.778L245 366z"/>
<path style="fill:#e7ccb1; stroke:none;" d="M307.333 369.667L307.333 370.333L307.667 370.333L307.667 370L307.333 369.667z"/>
<path style="fill:#efd8c2; stroke:none;" d="M245 370L245 375L245.722 374.222L245.75 373.694L245.917 372.917L245.75 371.306L245.722 370.778L245 370z"/>
<path style="fill:#ecd4bc; stroke:none;" d="M306.333 376.667L306.333 377.333L306.667 377.333L306.667 377L306.333 376.667z"/>
<path style="fill:#e0c4a5; stroke:none;" d="M246 377L246 380L246.694 379.25L246.694 378.194L246.694 377.75L246 377z"/>
<path style="fill:#e3c7aa; stroke:none;" d="M305.333 380.667L305.333 381L305.667 381.333L305.667 381L305.333 380.667z"/>
<path style="fill:#e4c8ab; stroke:none;" d="M247 383L247 388L247.722 387.222L247.75 386.694L247.917 385.917L247.75 384.306L247.722 383.778L247 383z"/>
<path style="fill:#dec0a0; stroke:none;" d="M304.333 384.667L304.333 385.333L304.667 385.333L304.667 385L304.333 384.667z"/>
<path style="fill:#e6cbb0; stroke:none;" d="M248.333 390.667L248.333 391L248.667 391.333L248.667 391L248.333 390.667z"/>
<path style="fill:#e5caae; stroke:none;" d="M303.333 391.667L303.333 392.333L303.667 392.333L303.667 392L303.333 391.667z"/>
<path style="fill:#ddbf9e; stroke:none;" d="M302.333 395.667L302.333 396.333L302.667 396.333L302.667 396L302.333 395.667z"/>
<path style="fill:#d9b894; stroke:none;" d="M301 399L301 402L301.694 401.25L301.694 400.194L301.694 399.75L301 399z"/>
<path style="fill:#ebd4bb; stroke:none;" d="M252.333 404.667L252.333 405L252.667 405.333L252.667 405L252.333 404.667z"/>
<path style="fill:#e4c9ab; stroke:none;" d="M300.333 406.667L300.333 407.333L300.667 407.333L300.667 406.667L300.333 406.667z"/>
<path style="fill:#ebd4bb; stroke:none;" d="M254.333 409.667L254.333 410L254.667 410.333L254.667 410L254.333 409.667z"/>
<path style="fill:#d9b894; stroke:none;" d="M299 410L299 413L299.694 412.25L299.694 411.194L299.694 410.75L299 410z"/>
<path style="fill:#ecd4bb; stroke:none;" d="M255.333 411.667L255.333 412L255.667 412.333L255.667 412L255.333 411.667z"/>
<path style="fill:#efdac3; stroke:none;" d="M299.333 413.667L299.333 414.333L299.667 414.333L299.667 413.667L299.333 413.667z"/>
<path style="fill:#e2c6a8; stroke:none;" d="M298 416L298 419L298.694 418.25L298.694 417.194L298.694 416.75L298 416z"/>
<path style="fill:#cfaa81; stroke:none;" d="M258 417L258 432L258.722 431.222L258.75 430.694L258.944 429.889L258.972 428.972L259 427L259 426L259 424L259 422L259 421L258.972 420.028L258.944 419.111L258.75 418.306L258.722 417.778L258 417z"/>
<path style="fill:#eed7c1; stroke:none;" d="M257 420L257 429L257.722 428.222L257.75 427.694L257.944 426.889L257.972 425.972L258 424L257.944 422.111L257.75 421.306L257.722 420.778L257 420z"/>
<path style="fill:#edd6be; stroke:none;" d="M296.333 427.667L296.333 428.333L296.667 428.333L296.667 427.667L296.333 427.667z"/>
<path style="fill:#f4e1ce; stroke:none;" d="M295 431L295 435L295.722 434.222L295.889 433L295.722 432.278L295.722 431.778L295 431z"/>
<path style="fill:#e3c7a9; stroke:none;" d="M258 432L258 435L258.694 434.25L258.694 433.194L258.694 432.75L258 432z"/>
<path style="fill:#ddbe9d; stroke:none;" d="M294.333 434.667L294.333 435.333L294.667 435.333L294.667 434.667L294.333 434.667z"/>
<path style="fill:#efd9c3; stroke:none;" d="M260.333 442.667L260.333 443.333L260.667 443.333L260.667 442.667L260.333 442.667z"/>
<path style="fill:#e0c3a4; stroke:none;" d="M292 444L292 447L292.694 446.25L292.694 445.194L292.694 444.75L292 444z"/>
<path style="fill:#e9d0b6; stroke:none;" d="M261.333 445.667L261.333 446.333L261.667 446.333L261.667 445.667L261.333 445.667z"/>
<path style="fill:#dec09f; stroke:none;" d="M262.333 447.667L262.333 448.333L262.667 448.333L262.667 447.667L262.333 447.667z"/>
<path style="fill:#d8b792; stroke:none;" d="M291 447L291 450L291.694 449.25L291.694 448.194L291.694 447.75L291 447z"/>
<path style="fill:#e7cdb2; stroke:none;" d="M290.333 453.667L290.333 454.333L290.667 454.333L290.667 453.667L290.333 453.667z"/>
<path style="fill:#debf9e; stroke:none;" d="M264 454L264 457L264.694 456.25L264.694 455.194L264.694 454.75L264 454z"/>
<path style="fill:#dcbd9b; stroke:none;" d="M265.333 457.667L265.333 458.333L265.667 458.333L265.667 457.667L265.333 457.667z"/>
<path style="fill:#ddbf9e; stroke:none;" d="M289 457L289 460L289.694 459.25L289.694 458.194L289.694 457.75L289 457z"/>
<path style="fill:#d6b38e; stroke:none;" d="M288.333 460.667L288.333 461.333L288.667 461.333L288.667 460.667L288.333 460.667z"/>
<path style="fill:#f6e4d2; stroke:none;" d="M288 462L287.917 463.5L287.778 464.056L287.389 466L287.083 467.944L287 470L287.806 469.222L287.972 468.694L288.333 467.889L288.778 466L288.917 464.111L288.75 463.306L288.722 462.778L288 462z"/>
<path style="fill:#d0ac83; stroke:none;" d="M267 466L267.083 467.5L267.222 468.056L267.389 469.056L267.611 470L267.917 472L267.972 473L268 475L268 476.944L268 480L268.722 479.222L268.75 478.694L268.944 477.889L268.972 476.972L269 476L269 474L269 472L268.917 470L268.556 468.111L268.139 467.306L267.972 466.778L267 466z"/>
<path style="fill:#edd6be; stroke:none;" d="M267 475L267 479L267.722 478.222L267.722 477.722L267.889 477L267.722 475.778L267 475z"/>
<path style="fill:#e4c9ac; stroke:none;" d="M284.333 477.667L284.333 478.333L284.667 478.333L284.667 477.667L284.333 477.667z"/>
<path style="fill:#e9d0b5; stroke:none;" d="M268.333 480.667L268.333 481.333L268.667 481.333L268.667 480.667L268.333 480.667z"/>
<path style="fill:#e3c7aa; stroke:none;" d="M282 485L282 488L282.694 487.25L282.694 486.194L282.694 485.75L282 485z"/>
<path style="fill:#e0c2a3; stroke:none;" d="M281 488L281 491L281.694 490.25L281.694 489.194L281.694 488.75L281 488z"/>
<path style="fill:#ecd4bc; stroke:none;" d="M272.333 489.667L272.333 490.333L272.667 490.333L272.667 489.667L272.333 489.667z"/>
<path style="fill:#e2c7a9; stroke:none;" d="M274.333 493.667L274.333 494L274.667 494.333L274.667 493.667L274.333 493.667z"/>
<path style="fill:#e2c6a8; stroke:none;" d="M275.333 495.667L275.333 496.333L275.667 496.333L275.667 495.667L275.333 495.667z"/>
<path style="fill:#d8b794; stroke:none;" d="M279 495L279 498L279.694 497.25L279.694 496.194L279.694 495.75L279 495z"/>
<path style="fill:#d6b48f; stroke:none;" d="M278 498L278 501L278.694 500.25L278.694 499.194L278.694 498.75L278 498z"/>
</svg>
